<svg width="472" height="52" viewBox="0 0 472 52" fill="none" xmlns="http://www.w3.org/2000/svg">
<rect x="0.5" y="0.5" width="471" height="51" rx="7.5" fill="white"/>
<rect x="0.5" y="0.5" width="471" height="51" rx="7.5" stroke="#D4D7E5"/>
<path d="M47.864 32V27.176L44 20.48H45.36L48.456 25.832L51.536 20.48H52.896L49.048 27.176V32H47.864ZM56.3374 32.24C55.4787 32.24 54.7454 32.0453 54.1374 31.656C53.5294 31.2667 53.0627 30.728 52.7374 30.04C52.412 29.352 52.2494 28.5627 52.2494 27.672C52.2494 26.7653 52.4147 25.9707 52.7454 25.288C53.076 24.6053 53.5454 24.0747 54.1534 23.696C54.7667 23.312 55.4947 23.12 56.3374 23.12C57.2014 23.12 57.9374 23.3147 58.5454 23.704C59.1587 24.088 59.6254 24.624 59.9454 25.312C60.2707 25.9947 60.4334 26.7813 60.4334 27.672C60.4334 28.5787 60.2707 29.376 59.9454 30.064C59.62 30.7467 59.1507 31.28 58.5374 31.664C57.924 32.048 57.1907 32.24 56.3374 32.24ZM56.3374 31.112C57.2974 31.112 58.012 30.7947 58.4814 30.16C58.9507 29.52 59.1854 28.6907 59.1854 27.672C59.1854 26.6267 58.948 25.7947 58.4734 25.176C58.004 24.5573 57.292 24.248 56.3374 24.248C55.692 24.248 55.1587 24.3947 54.7374 24.688C54.3214 24.976 54.0094 25.3787 53.8014 25.896C53.5987 26.408 53.4974 27 53.4974 27.672C53.4974 28.712 53.7374 29.5467 54.2174 30.176C54.6974 30.8 55.404 31.112 56.3374 31.112ZM65.5021 32.216C64.9848 32.216 64.5315 32.136 64.1421 31.976C63.7581 31.816 63.4301 31.6 63.1581 31.328C62.8915 31.056 62.6755 30.7467 62.5101 30.4C62.3448 30.048 62.2248 29.6773 62.1501 29.288C62.0755 28.8933 62.0381 28.5013 62.0381 28.112V23.36H63.2221V27.768C63.2221 28.2427 63.2675 28.6827 63.3581 29.088C63.4488 29.4933 63.5928 29.848 63.7901 30.152C63.9928 30.4507 64.2515 30.6827 64.5661 30.848C64.8861 31.0133 65.2728 31.096 65.7261 31.096C66.1421 31.096 66.5075 31.024 66.8221 30.88C67.1421 30.736 67.4088 30.5307 67.6221 30.264C67.8408 29.992 68.0061 29.664 68.1181 29.28C68.2301 28.8907 68.2861 28.4533 68.2861 27.968L69.1181 28.152C69.1181 29.0373 68.9635 29.7813 68.6541 30.384C68.3448 30.9867 67.9181 31.4427 67.3741 31.752C66.8301 32.0613 66.2061 32.216 65.5021 32.216ZM68.4061 32V29.872H68.2861V23.36H69.4621V32H68.4061ZM71.6981 32V23.36H72.7541V25.44L72.5461 25.168C72.6421 24.912 72.7675 24.6773 72.9221 24.464C73.0768 24.2453 73.2448 24.0667 73.4261 23.928C73.6501 23.7307 73.9115 23.5813 74.2101 23.48C74.5088 23.3733 74.8101 23.312 75.1141 23.296C75.4181 23.2747 75.6955 23.296 75.9461 23.36V24.464C75.6315 24.384 75.2875 24.3653 74.9141 24.408C74.5408 24.4507 74.1968 24.6 73.8821 24.856C73.5941 25.08 73.3781 25.3493 73.2341 25.664C73.0901 25.9733 72.9941 26.304 72.9461 26.656C72.8981 27.0027 72.8741 27.3467 72.8741 27.688V32H71.6981ZM80.6669 32V20.48H87.8669V21.608H81.8429V25.592H86.9069V26.72H81.8429V30.872H87.8669V32H80.6669ZM100.096 32L100.104 26.328C100.104 25.6613 99.9172 25.1387 99.5439 24.76C99.1759 24.376 98.7065 24.184 98.1359 24.184C97.8105 24.184 97.4932 24.2587 97.1839 24.408C96.8745 24.5573 96.6185 24.7973 96.4159 25.128C96.2185 25.4587 96.1199 25.8907 96.1199 26.424L95.4239 26.224C95.4079 25.6053 95.5279 25.064 95.7839 24.6C96.0452 24.136 96.4025 23.776 96.8559 23.52C97.3145 23.2587 97.8319 23.128 98.4079 23.128C99.2772 23.128 99.9732 23.3973 100.496 23.936C101.019 24.4693 101.28 25.192 101.28 26.104L101.272 32H100.096ZM89.7839 32V23.36H90.8399V25.488H90.9679V32H89.7839ZM94.9519 32L94.9599 26.408C94.9599 25.72 94.7759 25.1787 94.4079 24.784C94.0452 24.384 93.5652 24.184 92.9679 24.184C92.3705 24.184 91.8879 24.3893 91.5199 24.8C91.1519 25.2053 90.9679 25.7467 90.9679 26.424L90.2639 26.04C90.2639 25.4853 90.3945 24.9893 90.6559 24.552C90.9172 24.1093 91.2745 23.7627 91.7279 23.512C92.1812 23.256 92.6959 23.128 93.2719 23.128C93.8212 23.128 94.3092 23.2453 94.7359 23.48C95.1679 23.7147 95.5065 24.056 95.7519 24.504C95.9972 24.952 96.1199 25.496 96.1199 26.136L96.1119 32H94.9519ZM105.826 32.24C105.176 32.24 104.629 32.1227 104.186 31.888C103.749 31.6533 103.421 31.3413 103.202 30.952C102.984 30.5627 102.874 30.1387 102.874 29.68C102.874 29.2107 102.968 28.8107 103.154 28.48C103.346 28.144 103.605 27.8693 103.93 27.656C104.261 27.4427 104.642 27.28 105.074 27.168C105.512 27.0613 105.994 26.968 106.522 26.888C107.056 26.8027 107.576 26.7307 108.082 26.672C108.594 26.608 109.042 26.5467 109.426 26.488L109.01 26.744C109.026 25.8907 108.861 25.2587 108.514 24.848C108.168 24.4373 107.565 24.232 106.706 24.232C106.114 24.232 105.613 24.3653 105.202 24.632C104.797 24.8987 104.512 25.32 104.346 25.896L103.202 25.56C103.4 24.7867 103.797 24.1867 104.394 23.76C104.992 23.3333 105.768 23.12 106.722 23.12C107.512 23.12 108.181 23.2693 108.73 23.568C109.285 23.8613 109.677 24.288 109.906 24.848C110.013 25.0987 110.082 25.3787 110.114 25.688C110.146 25.9973 110.162 26.312 110.162 26.632V32H109.114V29.832L109.418 29.96C109.125 30.7013 108.669 31.2667 108.05 31.656C107.432 32.0453 106.69 32.24 105.826 32.24ZM105.962 31.224C106.512 31.224 106.992 31.1253 107.402 30.928C107.813 30.7307 108.144 30.4613 108.394 30.12C108.645 29.7733 108.808 29.384 108.882 28.952C108.946 28.6747 108.981 28.3707 108.986 28.04C108.992 27.704 108.994 27.4533 108.994 27.288L109.442 27.52C109.042 27.5733 108.608 27.6267 108.138 27.68C107.674 27.7333 107.216 27.7947 106.762 27.864C106.314 27.9333 105.909 28.016 105.546 28.112C105.301 28.1813 105.064 28.28 104.834 28.408C104.605 28.5307 104.416 28.696 104.266 28.904C104.122 29.112 104.05 29.3707 104.05 29.68C104.05 29.9307 104.112 30.1733 104.234 30.408C104.362 30.6427 104.565 30.8373 104.842 30.992C105.125 31.1467 105.498 31.224 105.962 31.224ZM112.405 21.72V20.4H113.581V21.72H112.405ZM112.405 32V23.36H113.581V32H112.405ZM116.139 32V20.24H117.315V32H116.139Z" fill="#B4B7C9"/>
<path d="M32.6666 19.3333H19.3333C18.4141 19.3333 17.6666 20.0808 17.6666 20.9999V30.9999C17.6666 31.9191 18.4141 32.6666 19.3333 32.6666H32.6666C33.5858 32.6666 34.3333 31.9191 34.3333 30.9999V20.9999C34.3333 20.0808 33.5858 19.3333 32.6666 19.3333ZM32.6666 20.9999V21.4258L26 26.6116L19.3333 21.4266V20.9999H32.6666ZM19.3333 30.9999V23.5366L25.4883 28.3241C25.6383 28.4416 25.8191 28.4999 26 28.4999C26.1808 28.4999 26.3616 28.4416 26.5116 28.3241L32.6666 23.5366L32.6683 30.9999H19.3333Z" fill="#B4B7C9"/>
<path d="M330 0H464C468.418 0 472 3.58172 472 8V44C472 48.4183 468.418 52 464 52H330V0Z" fill="#6366F1"/>
<path d="M367.749 32.24C366.922 32.24 366.176 32.0987 365.509 31.816C364.848 31.528 364.301 31.12 363.869 30.592C363.442 30.0587 363.165 29.4267 363.037 28.696L364.781 28.432C364.957 29.136 365.325 29.6853 365.885 30.08C366.445 30.4693 367.098 30.664 367.845 30.664C368.309 30.664 368.736 30.592 369.125 30.448C369.514 30.2987 369.826 30.088 370.061 29.816C370.301 29.5387 370.421 29.208 370.421 28.824C370.421 28.616 370.384 28.432 370.309 28.272C370.24 28.112 370.141 27.9733 370.013 27.856C369.89 27.7333 369.738 27.6293 369.557 27.544C369.381 27.4533 369.186 27.376 368.973 27.312L366.021 26.44C365.733 26.3547 365.44 26.2453 365.141 26.112C364.842 25.9733 364.568 25.7947 364.317 25.576C364.072 25.352 363.872 25.0773 363.717 24.752C363.562 24.4213 363.485 24.0213 363.485 23.552C363.485 22.8427 363.666 22.2427 364.029 21.752C364.397 21.256 364.893 20.8827 365.517 20.632C366.141 20.376 366.84 20.248 367.613 20.248C368.392 20.2587 369.088 20.3973 369.701 20.664C370.32 20.9307 370.832 21.3147 371.237 21.816C371.648 22.312 371.93 22.9147 372.085 23.624L370.293 23.928C370.213 23.496 370.042 23.1253 369.781 22.816C369.52 22.5013 369.2 22.2613 368.821 22.096C368.442 21.9253 368.032 21.8373 367.589 21.832C367.162 21.8213 366.77 21.8853 366.413 22.024C366.061 22.1627 365.778 22.3573 365.565 22.608C365.357 22.8587 365.253 23.1467 365.253 23.472C365.253 23.792 365.346 24.0507 365.533 24.248C365.72 24.4453 365.949 24.6027 366.221 24.72C366.498 24.832 366.773 24.9253 367.045 25L369.173 25.6C369.44 25.6747 369.741 25.776 370.077 25.904C370.418 26.0267 370.746 26.2 371.061 26.424C371.381 26.648 371.645 26.9467 371.853 27.32C372.061 27.688 372.165 28.152 372.165 28.712C372.165 29.2933 372.048 29.8053 371.813 30.248C371.578 30.6853 371.256 31.0533 370.845 31.352C370.44 31.6453 369.97 31.8667 369.437 32.016C368.904 32.1653 368.341 32.24 367.749 32.24ZM377.126 32.232C376.529 32.232 376.027 32.136 375.622 31.944C375.217 31.752 374.886 31.5013 374.63 31.192C374.379 30.8773 374.187 30.536 374.054 30.168C373.921 29.8 373.83 29.44 373.782 29.088C373.734 28.736 373.71 28.4267 373.71 28.16V23.36H375.406V27.608C375.406 27.944 375.433 28.2907 375.486 28.648C375.545 29 375.651 29.328 375.806 29.632C375.966 29.936 376.187 30.1813 376.47 30.368C376.758 30.5547 377.131 30.648 377.59 30.648C377.889 30.648 378.171 30.6 378.438 30.504C378.705 30.4027 378.937 30.2427 379.134 30.024C379.337 29.8053 379.494 29.5173 379.606 29.16C379.723 28.8027 379.782 28.368 379.782 27.856L380.822 28.248C380.822 29.032 380.675 29.7253 380.382 30.328C380.089 30.9253 379.667 31.392 379.118 31.728C378.569 32.064 377.905 32.232 377.126 32.232ZM379.982 32V29.504H379.782V23.36H381.47V32H379.982ZM387.77 32.24C386.943 32.24 386.25 32.04 385.69 31.64C385.13 31.2347 384.706 30.688 384.418 30C384.13 29.312 383.986 28.536 383.986 27.672C383.986 26.808 384.127 26.032 384.41 25.344C384.698 24.656 385.119 24.1147 385.674 23.72C386.234 23.32 386.922 23.12 387.738 23.12C388.548 23.12 389.247 23.32 389.834 23.72C390.426 24.1147 390.882 24.656 391.202 25.344C391.522 26.0267 391.682 26.8027 391.682 27.672C391.682 28.536 391.522 29.3147 391.202 30.008C390.887 30.696 390.436 31.24 389.85 31.64C389.268 32.04 388.575 32.24 387.77 32.24ZM383.706 32V20.48H385.386V25.784H385.194V32H383.706ZM387.538 30.728C388.071 30.728 388.511 30.592 388.858 30.32C389.21 30.048 389.471 29.6827 389.642 29.224C389.818 28.76 389.906 28.2427 389.906 27.672C389.906 27.1067 389.818 26.5947 389.642 26.136C389.471 25.6773 389.207 25.312 388.85 25.04C388.492 24.768 388.036 24.632 387.482 24.632C386.959 24.632 386.527 24.76 386.186 25.016C385.85 25.272 385.599 25.6293 385.434 26.088C385.274 26.5467 385.194 27.0747 385.194 27.672C385.194 28.2693 385.274 28.7973 385.434 29.256C385.594 29.7147 385.847 30.0747 386.194 30.336C386.54 30.5973 386.988 30.728 387.538 30.728ZM396.596 32.232C395.545 32.232 394.689 32 394.028 31.536C393.367 31.072 392.961 30.4187 392.812 29.576L394.524 29.312C394.631 29.76 394.876 30.1147 395.26 30.376C395.649 30.632 396.132 30.76 396.708 30.76C397.231 30.76 397.639 30.6533 397.932 30.44C398.231 30.2267 398.38 29.9333 398.38 29.56C398.38 29.3413 398.327 29.1653 398.22 29.032C398.119 28.8933 397.903 28.7627 397.572 28.64C397.241 28.5173 396.737 28.3653 396.06 28.184C395.319 27.992 394.729 27.7867 394.292 27.568C393.86 27.344 393.551 27.0853 393.364 26.792C393.183 26.4933 393.092 26.1333 393.092 25.712C393.092 25.1893 393.231 24.7333 393.508 24.344C393.785 23.9547 394.175 23.6533 394.676 23.44C395.183 23.2267 395.775 23.12 396.452 23.12C397.113 23.12 397.703 23.224 398.22 23.432C398.737 23.64 399.156 23.936 399.476 24.32C399.796 24.6987 399.988 25.144 400.052 25.656L398.34 25.968C398.281 25.552 398.087 25.224 397.756 24.984C397.425 24.744 396.996 24.6133 396.468 24.592C395.961 24.5707 395.551 24.656 395.236 24.848C394.921 25.0347 394.764 25.2933 394.764 25.624C394.764 25.816 394.823 25.9787 394.94 26.112C395.063 26.2453 395.297 26.3733 395.644 26.496C395.991 26.6187 396.503 26.7653 397.18 26.936C397.905 27.1227 398.481 27.3307 398.908 27.56C399.335 27.784 399.639 28.0533 399.82 28.368C400.007 28.6773 400.1 29.0533 400.1 29.496C400.1 30.3493 399.788 31.0187 399.164 31.504C398.545 31.9893 397.689 32.232 396.596 32.232ZM405.566 32.24C404.681 32.24 403.929 32.0427 403.31 31.648C402.691 31.2533 402.217 30.712 401.886 30.024C401.561 29.336 401.395 28.5547 401.39 27.68C401.395 26.7893 401.566 26.0027 401.902 25.32C402.238 24.632 402.718 24.0933 403.342 23.704C403.966 23.3147 404.715 23.12 405.59 23.12C406.534 23.12 407.339 23.3547 408.006 23.824C408.678 24.2933 409.121 24.936 409.334 25.752L407.67 26.232C407.505 25.7467 407.233 25.3707 406.854 25.104C406.481 24.832 406.051 24.696 405.566 24.696C405.017 24.696 404.566 24.8267 404.214 25.088C403.862 25.344 403.601 25.696 403.43 26.144C403.259 26.592 403.171 27.104 403.166 27.68C403.171 28.5707 403.374 29.2907 403.774 29.84C404.179 30.3893 404.777 30.664 405.566 30.664C406.105 30.664 406.539 30.5413 406.87 30.296C407.206 30.0453 407.462 29.688 407.638 29.224L409.334 29.624C409.051 30.4667 408.585 31.1147 407.934 31.568C407.283 32.016 406.494 32.24 405.566 32.24ZM410.964 32V23.36H412.452V25.456L412.244 25.184C412.35 24.9067 412.489 24.6533 412.66 24.424C412.83 24.1893 413.028 23.9973 413.252 23.848C413.47 23.688 413.713 23.5653 413.98 23.48C414.252 23.3893 414.529 23.336 414.812 23.32C415.094 23.2987 415.366 23.312 415.628 23.36V24.928C415.345 24.8533 415.03 24.832 414.684 24.864C414.342 24.896 414.028 25.0053 413.74 25.192C413.468 25.368 413.252 25.5813 413.092 25.832C412.937 26.0827 412.825 26.3627 412.756 26.672C412.686 26.976 412.652 27.2987 412.652 27.64V32H410.964ZM417.311 21.944V20.32H418.983V21.944H417.311ZM417.311 32V23.36H418.983V32H417.311ZM425.442 32.24C424.615 32.24 423.922 32.04 423.362 31.64C422.802 31.2347 422.378 30.688 422.09 30C421.802 29.312 421.658 28.536 421.658 27.672C421.658 26.808 421.799 26.032 422.082 25.344C422.37 24.656 422.791 24.1147 423.346 23.72C423.906 23.32 424.594 23.12 425.41 23.12C426.22 23.12 426.919 23.32 427.506 23.72C428.098 24.1147 428.554 24.656 428.874 25.344C429.194 26.0267 429.354 26.8027 429.354 27.672C429.354 28.536 429.194 29.3147 428.874 30.008C428.559 30.696 428.108 31.24 427.522 31.64C426.94 32.04 426.247 32.24 425.442 32.24ZM421.378 32V20.48H423.058V25.784H422.866V32H421.378ZM425.21 30.728C425.743 30.728 426.183 30.592 426.53 30.32C426.882 30.048 427.143 29.6827 427.314 29.224C427.49 28.76 427.578 28.2427 427.578 27.672C427.578 27.1067 427.49 26.5947 427.314 26.136C427.143 25.6773 426.879 25.312 426.522 25.04C426.164 24.768 425.708 24.632 425.154 24.632C424.631 24.632 424.199 24.76 423.858 25.016C423.522 25.272 423.271 25.6293 423.106 26.088C422.946 26.5467 422.866 27.0747 422.866 27.672C422.866 28.2693 422.946 28.7973 423.106 29.256C423.266 29.7147 423.519 30.0747 423.866 30.336C424.212 30.5973 424.66 30.728 425.21 30.728ZM434.952 32.24C434.093 32.24 433.339 32.0533 432.688 31.68C432.043 31.3013 431.539 30.776 431.176 30.104C430.819 29.4267 430.64 28.6427 430.64 27.752C430.64 26.808 430.816 25.9893 431.168 25.296C431.525 24.6027 432.021 24.0667 432.656 23.688C433.291 23.3093 434.029 23.12 434.872 23.12C435.752 23.12 436.501 23.3253 437.12 23.736C437.739 24.1413 438.2 24.72 438.504 25.472C438.813 26.224 438.936 27.1173 438.872 28.152H437.2V27.544C437.189 26.5413 436.997 25.8 436.624 25.32C436.256 24.84 435.693 24.6 434.936 24.6C434.099 24.6 433.469 24.864 433.048 25.392C432.627 25.92 432.416 26.6827 432.416 27.68C432.416 28.6293 432.627 29.3653 433.048 29.888C433.469 30.4053 434.077 30.664 434.872 30.664C435.395 30.664 435.845 30.5467 436.224 30.312C436.608 30.072 436.907 29.7307 437.12 29.288L438.76 29.808C438.424 30.5813 437.915 31.1813 437.232 31.608C436.549 32.0293 435.789 32.24 434.952 32.24ZM431.872 28.152V26.848H438.04V28.152H431.872Z" fill="white"/>
</svg>
