<svg width="416" height="44" viewBox="0 0 416 44" fill="none" xmlns="http://www.w3.org/2000/svg">
<rect width="416" height="44" rx="6" fill="white" fill-opacity="0.02"/>
<rect x="0.5" y="0.5" width="415" height="43" rx="5.5" stroke="white" stroke-opacity="0.18"/>
<path d="M47.381 27H48.417V22.779L51.784 16.92H50.594L47.899 21.603L45.19 16.92H44L47.381 22.779V27ZM54.7952 27.21C55.5419 27.21 56.1812 27.042 56.7132 26.706C57.2499 26.37 57.6605 25.9033 57.9452 25.306C58.2345 24.704 58.3792 24.0063 58.3792 23.213C58.3792 22.4337 58.2369 21.7453 57.9522 21.148C57.6722 20.546 57.2639 20.077 56.7272 19.741C56.1952 19.4003 55.5512 19.23 54.7952 19.23C54.0579 19.23 53.4209 19.398 52.8842 19.734C52.3522 20.0653 51.9415 20.5297 51.6522 21.127C51.3629 21.7243 51.2182 22.4197 51.2182 23.213C51.2182 23.9923 51.3582 24.683 51.6382 25.285C51.9229 25.887 52.3312 26.3583 52.8632 26.699C53.3999 27.0397 54.0439 27.21 54.7952 27.21ZM54.7952 26.223C53.9785 26.223 53.3602 25.95 52.9402 25.404C52.5202 24.8533 52.3102 24.123 52.3102 23.213C52.3102 22.331 52.5132 21.6123 52.9192 21.057C53.3252 20.497 53.9505 20.217 54.7952 20.217C55.6305 20.217 56.2535 20.49 56.6642 21.036C57.0795 21.5773 57.2872 22.303 57.2872 23.213C57.2872 24.1043 57.0819 24.83 56.6712 25.39C56.2605 25.9453 55.6352 26.223 54.7952 26.223ZM62.8144 27.189C63.3557 27.189 63.8434 27.0863 64.2774 26.881C64.716 26.671 65.0754 26.3607 65.3554 25.95V27H66.2794V19.44H65.2504V23.472C65.2504 24.326 65.059 24.9957 64.6764 25.481C64.2937 25.9663 63.7384 26.209 63.0104 26.209C62.483 26.209 62.0584 26.083 61.7364 25.831C61.4144 25.5743 61.181 25.2267 61.0364 24.788C60.8917 24.3493 60.8194 23.8523 60.8194 23.297V19.44H59.7834V23.598C59.7834 24.0227 59.8347 24.4473 59.9374 24.872C60.0447 25.2967 60.215 25.684 60.4484 26.034C60.6817 26.384 60.992 26.664 61.3794 26.874C61.7714 27.084 62.2497 27.189 62.8144 27.189ZM68.2359 27H69.2649V23.227C69.2649 22.7743 69.3162 22.324 69.4189 21.876C69.5262 21.4233 69.7689 21.0477 70.1469 20.749C70.4222 20.525 70.7209 20.3967 71.0429 20.364C71.3695 20.3267 71.6729 20.3407 71.9529 20.406V19.44C71.6215 19.356 71.2459 19.3537 70.8259 19.433C70.4059 19.5077 70.0465 19.6757 69.7479 19.937C69.5239 20.105 69.3279 20.3383 69.1599 20.637V19.44H68.2359V27ZM76.0835 27H82.3835V26.013H77.1125V22.38H81.5435V21.393H77.1125V17.907H82.3835V16.92H76.0835V27ZM84.0609 27H85.0969V22.121C85.0969 21.5283 85.2579 21.0547 85.5799 20.7C85.9019 20.3407 86.3242 20.161 86.8469 20.161C87.3696 20.161 87.7896 20.336 88.1069 20.686C88.4289 21.0313 88.5899 21.505 88.5899 22.107L88.5829 27H89.5979L89.6049 22.121C89.6049 21.6497 89.6912 21.2717 89.8639 20.987C90.0412 20.6977 90.2652 20.4877 90.5359 20.357C90.8066 20.2263 91.0842 20.161 91.3689 20.161C91.8682 20.161 92.2789 20.329 92.6009 20.665C92.9276 20.9963 93.0909 21.4537 93.0909 22.037L93.0839 27H94.1129L94.1199 21.841C94.1199 21.043 93.8912 20.4107 93.4339 19.944C92.9812 19.4727 92.3722 19.237 91.6069 19.237C91.1029 19.237 90.6502 19.3513 90.2489 19.58C89.8476 19.804 89.5372 20.1143 89.3179 20.511C89.1126 20.0957 88.8162 19.7807 88.4289 19.566C88.0462 19.3467 87.6076 19.237 87.1129 19.237C86.6649 19.237 86.2566 19.328 85.8879 19.51C85.5192 19.6873 85.2182 19.93 84.9849 20.238V19.44H84.0609V27ZM98.0981 27.21C99.4187 27.21 100.378 26.7223 100.975 25.747V27H101.892V22.303C101.892 22.023 101.878 21.7477 101.85 21.477C101.822 21.2063 101.761 20.9613 101.668 20.742C101.467 20.252 101.124 19.8787 100.639 19.622C100.158 19.3607 99.5727 19.23 98.8821 19.23C98.0514 19.23 97.3747 19.4167 96.8521 19.79C96.3294 20.1633 95.9794 20.6883 95.8021 21.365L96.8031 21.659C96.9477 21.155 97.1974 20.7863 97.5521 20.553C97.9114 20.3197 98.3501 20.203 98.8681 20.203C99.5867 20.203 100.1 20.371 100.408 20.707C100.716 21.0383 100.875 21.5447 100.884 22.226C100.548 22.2727 100.177 22.3217 99.7711 22.373C99.3697 22.4243 98.9661 22.4827 98.5601 22.548C98.1541 22.6133 97.7807 22.688 97.4401 22.772C96.8754 22.9213 96.4134 23.171 96.0541 23.521C95.6947 23.8663 95.5151 24.3493 95.5151 24.97C95.5151 25.3713 95.6107 25.7423 95.8021 26.083C95.9934 26.4237 96.2804 26.6967 96.6631 26.902C97.0504 27.1073 97.5287 27.21 98.0981 27.21ZM98.2171 26.321C97.8111 26.321 97.4844 26.2557 97.2371 26.125C96.9944 25.9897 96.8171 25.8193 96.7051 25.614C96.5977 25.404 96.5441 25.1893 96.5441 24.97C96.5441 24.5593 96.6817 24.2513 96.9571 24.046C97.2324 23.8407 97.5311 23.6913 97.8531 23.598C98.2684 23.486 98.7514 23.395 99.3021 23.325C99.8527 23.255 100.375 23.1897 100.87 23.129C100.87 23.3017 100.863 23.5 100.849 23.724C100.84 23.9433 100.814 24.1463 100.772 24.333C100.674 24.9023 100.403 25.376 99.9601 25.754C99.5214 26.132 98.9404 26.321 98.2171 26.321ZM103.854 18.005H104.883V16.85H103.854V18.005ZM103.854 27H104.883V19.44H103.854V27ZM107.122 27H108.151V16.71H107.122V27Z" fill="white" fill-opacity="0.4"/>
<path d="M32.6665 15.3334H19.3332C18.414 15.3334 17.6665 16.0809 17.6665 17V27C17.6665 27.9192 18.414 28.6667 19.3332 28.6667H32.6665C33.5857 28.6667 34.3332 27.9192 34.3332 27V17C34.3332 16.0809 33.5857 15.3334 32.6665 15.3334ZM32.6665 17V17.4259L25.9998 22.6117L19.3332 17.4267V17H32.6665ZM19.3332 27V19.5367L25.4882 24.3242C25.6382 24.4417 25.819 24.5 25.9998 24.5C26.1807 24.5 26.3615 24.4417 26.5115 24.3242L32.6665 19.5367L32.6682 27H19.3332Z" fill="white" fill-opacity="0.4"/>
</svg>
